<svg width="731" height="94" viewBox="0 0 731 94" fill="none" xmlns="http://www.w3.org/2000/svg">
<path d="M8.00005 32.6707C5.5 29.8049 10.0001 15.4756 10.0001 15.4756L21.0001 29.8049C21.0001 29.8049 10.5001 35.5366 8.00005 32.6707Z" fill="#F7EADC"/>
<path d="M0.66635 33.3807C3.06912 61.0177 4.62305 70.1632 10 94C35 79.6886 39 31.4539 39 31.4539C39 31.4539 30.3924 27.9053 2.4209 31.2193C1.35457 31.3456 0.573345 32.311 0.66635 33.3807Z" fill="#F7EADC"/>
<path d="M727.912 54.6241C732.074 37.6576 731.997 14.9411 727.874 1.89674C727.674 1.26374 727.534 0.862486 726.877 0.762297C697.027 -3.79483 53.6472 13.5218 12.1033 14.6456C10.9424 14.677 10.0995 15.7014 10.2136 16.857C13.4324 49.4522 13.8943 60.8485 10.2982 91.4914C10.1482 92.7697 11.1577 93.8743 12.4373 93.7369C243.869 68.8886 697.081 56.8627 726.08 56.1127C726.968 56.0897 727.7 55.4871 727.912 54.6241Z" fill="url(#paint0_linear_5_4)"/>
<defs>
<linearGradient id="paint0_linear_5_4" x1="355" y1="7.45122" x2="357.627" y2="69.9004" gradientUnits="userSpaceOnUse">
<stop offset="0.42" stop-color="#FFFBF6"/>
<stop offset="1" stop-color="#EDE2D6"/>
</linearGradient>
</defs>
</svg>
